<svg width="32" height="32" viewBox="0 0 32 32" fill="none" xmlns="http://www.w3.org/2000/svg">
  <defs>
    <linearGradient id="grad" x1="0%" y1="0%" x2="100%" y2="100%">
      <stop offset="0%" style="stop-color:#3776AB"/>
      <stop offset="100%" style="stop-color:#FFD343"/>
    </linearGradient>
  </defs>
  <rect width="32" height="32" rx="8" fill="url(#grad)"/>
  <path d="M16.03 3.3c-1.04 0-1.75.1-2.62.25-2.57.45-3.04 1.38-3.04 3.11v2.34h6v1h-8.25c-1.8 0-3.37 1.08-3.87 3.13-.56 2.35-.59 3.82 0 6.28.44 1.83 1.48 3.13 3.27 3.13h2.12v-2.81c0-2.04 1.77-3.85 3.87-3.85h6.01c1.72 0 3.09-1.41 3.09-3.13v-4.98c0-1.68-1.41-2.94-3.09-3.13-.78-.09-1.66-.11-2.71-.11zm-3.26 1.84c.64 0 1.16.53 1.16 1.19 0 .65-.52 1.17-1.16 1.17-.64 0-1.16-.52-1.16-1.17 0-.66.52-1.19 1.16-1.19z" fill="white"/>
  <path d="M19.65 10v2.74c0 2.14-1.81 3.94-3.87 3.94h-6.01c-1.69 0-3.09 1.45-3.09 3.13v4.98c0 1.68 1.46 2.66 3.09 3.13 1.96.56 3.84.66 6.01 0 1.44-.44 3.09-1.33 3.09-3.13v-2.34h-6.01v-1h9.1c1.8 0 2.47-1.26 3.09-3.13.64-1.93.62-3.79 0-6.28-.44-1.79-1.29-3.13-3.09-3.13h-2.31zm-3.38 17.92c.64 0 1.16.52 1.16 1.17 0 .66-.52 1.19-1.16 1.19-.64 0-1.16-.53-1.16-1.19 0-.65.52-1.17 1.16-1.17z" fill="white"/>
</svg>
