<svg width="512" height="512" viewBox="0 0 512 512" fill="none" xmlns="http://www.w3.org/2000/svg">
  <defs>
    <linearGradient id="iconGrad" x1="0%" y1="0%" x2="100%" y2="100%">
      <stop offset="0%" style="stop-color:#3776AB"/>
      <stop offset="100%" style="stop-color:#FFD343"/>
    </linearGradient>
  </defs>
  <rect width="512" height="512" rx="128" fill="url(#iconGrad)"/>
  <path d="M256.5 53.3c-16.6.1-28.1 1.5-42 3.9-41.1 7.2-48.6 22.2-48.6 49.9v37.4h96.2v16H130c-28.8 0-54 17.3-61.9 50.1-9 37.6-9.4 61.1 0 100.4 7 29.3 23.6 50.1 52.4 50.1h33.8v-44.9c0-32.7 28.3-61.6 61.9-61.6h96.2c27.5 0 49.5-22.6 49.5-50.1v-79.7c0-26.8-22.6-47-49.5-50.1-12.5-1.4-26.6-1.7-43.4-1.7zm-52.1 29.5c10.2 0 18.6 8.5 18.6 19 0 10.4-8.4 18.8-18.6 18.8-10.3 0-18.6-8.4-18.6-18.8 0-10.5 8.3-19 18.6-19z" fill="white"/>
  <path d="M314.4 160.5v43.8c0 34.2-29 63.1-61.9 63.1h-96.2c-27 0-49.5 23.2-49.5 50.1v79.7c0 26.8 23.3 42.6 49.5 50.1 31.4 9 61.5 10.6 96.2 0 23.1-7 49.5-21.2 49.5-50.1v-37.4h-96.2v-16h145.7c28.8 0 39.5-20.1 49.5-50.1 10.3-30.9 9.9-60.6 0-100.4-7.1-28.7-20.7-50.1-49.5-50.1h-37.1zm-54.1 286.7c10.3 0 18.6 8.4 18.6 18.8 0 10.5-8.3 19-18.6 19-10.2 0-18.6-8.5-18.6-19 0-10.4 8.4-18.8 18.6-18.8z" fill="white"/>
</svg>
